<svg xmlns="http://www.w3.org/2000/svg" width="342" height="62" viewBox="0 0 342 62">
  <g fill="none" fill-rule="evenodd" transform="translate(-34 -31)">
    <rect width="412" height="116" fill="#FFF" opacity="0"/>
    <path fill="#BDBDBD" d="M45.994 81C42.682 81 40 83.688 40 87 40 90.312 42.682 93 45.994 93 49.312 93 52 90.312 52 87 52 83.688 49.312 81 45.994 81L45.994 81zM50.152 84.6L48.382 84.6C48.19 83.85 47.914 83.13 47.554 82.464 48.658 82.842 49.576 83.61 50.152 84.6L50.152 84.6zM46 82.224C46.498 82.944 46.888 83.742 47.146 84.6L44.854 84.6C45.112 83.742 45.502 82.944 46 82.224L46 82.224zM41.356 88.2C41.26 87.816 41.2 87.414 41.2 87 41.2 86.586 41.26 86.184 41.356 85.8L43.384 85.8C43.336 86.196 43.3 86.592 43.3 87 43.3 87.408 43.336 87.804 43.384 88.2L41.356 88.2 41.356 88.2zM41.848 89.4L43.618 89.4C43.81 90.15 44.086 90.87 44.446 91.536 43.342 91.158 42.424 90.396 41.848 89.4L41.848 89.4zM43.618 84.6L41.848 84.6C42.424 83.604 43.342 82.842 44.446 82.464 44.086 83.13 43.81 83.85 43.618 84.6L43.618 84.6zM46 91.776C45.502 91.056 45.112 90.258 44.854 89.4L47.146 89.4C46.888 90.258 46.498 91.056 46 91.776L46 91.776zM47.404 88.2L44.596 88.2C44.542 87.804 44.5 87.408 44.5 87 44.5 86.592 44.542 86.19 44.596 85.8L47.404 85.8C47.458 86.19 47.5 86.592 47.5 87 47.5 87.408 47.458 87.804 47.404 88.2L47.404 88.2zM47.554 91.536C47.914 90.87 48.19 90.15 48.382 89.4L50.152 89.4C49.576 90.39 48.658 91.158 47.554 91.536L47.554 91.536zM48.616 88.2C48.664 87.804 48.7 87.408 48.7 87 48.7 86.592 48.664 86.196 48.616 85.8L50.644 85.8C50.74 86.184 50.8 86.586 50.8 87 50.8 87.414 50.74 87.816 50.644 88.2L48.616 88.2 48.616 88.2zM94.9649658 47.3135522L92.4799658 43.7575758 91.5699658 43.7575758 94.5099658 47.9646465 91.5699658 52.1717172 92.4799658 52.1717172 94.9649658 48.6157407 97.4499658 52.1717172 98.3599658 52.1717172 95.4199658 47.9646465 98.3599658 43.7575758 97.4499658 43.7575758 94.9649658 47.3135522 94.9649658 47.3135522zM95 41C98.85 41 102 44.1111111 102 48 102 51.8888889 98.85 55 95 55 91.15 55 88 51.8888889 88 48 88 44.1111111 91.15 41 95 41L95 41z"/>
    <path fill="#FFF" d="M270.964966,47.3135522 L268.479966,43.7575758 L267.569966,43.7575758 L270.509966,47.9646465 L267.569966,52.1717172 L268.479966,52.1717172 L270.964966,48.6157407 L273.449966,52.1717172 L274.359966,52.1717172 L271.419966,47.9646465 L274.359966,43.7575758 L273.449966,43.7575758 L270.964966,47.3135522 L270.964966,47.3135522 Z M271,41 C274.85,41 278,44.1111111 278,48 C278,51.8888889 274.85,55 271,55 C267.15,55 264,51.8888889 264,48 C264,44.1111111 267.15,41 271,41 L271,41 Z"/>
    <path fill="#BDBDBD" d="M177.914202,44.6995567 C177.409111,44.6995567 177,45.1144546 177,45.6266048 L177,49.2484061 C177,49.7607343 177.409509,50.1757034 177.914202,50.1757034 C178.418894,50.1757034 178.828404,49.7608055 178.828404,49.2484061 L178.828404,45.6266048 C178.828422,45.1148285 178.419456,44.6995567 177.914202,44.6995567 L177.914202,44.6995567 Z M188.942941,44.6995567 C188.43785,44.6995567 188.028486,45.1144546 188.028486,45.6266048 L188.028486,49.2484061 C188.028486,49.7607343 188.438266,50.1757034 188.942941,50.1757034 C189.447615,50.1757034 189.857143,49.7608055 189.857143,49.2484061 L189.857143,45.6266048 C189.857143,45.1148285 189.447633,44.6995567 188.942941,44.6995567 L188.942941,44.6995567 Z M179.378597,51.345811 C179.378597,51.7389687 179.697684,52.0573265 180.091484,52.0573265 L180.90538,52.0573265 L180.90538,54.0727026 C180.90538,54.5850309 181.31489,55 181.819582,55 C182.324275,55 182.734038,54.5851021 182.734038,54.0727026 L182.734038,52.0573265 L184.156444,52.0573265 L184.156444,54.0727026 C184.156444,54.5850309 184.566224,55 185.070899,55 C185.575573,55 185.985101,54.5851021 185.985101,54.0727026 L185.985101,52.0573265 L186.798998,52.0573265 C187.192616,52.0573265 187.511884,51.7389153 187.511884,51.345811 L187.511884,44.7274932 L179.37686,44.7274932 L179.37686,51.345811 L179.378597,51.345811 Z M185.357353,41.2986474 L186.108609,40.2101057 C186.153133,40.1455973 186.142219,40.0607196 186.084229,40.0207112 C186.025661,39.9805782 185.942224,40.0009474 185.8977,40.0648327 L185.116871,41.1962316 C184.602785,40.9942132 184.031216,40.8811321 183.428843,40.8811321 C182.82647,40.8811321 182.254865,40.9939105 181.740815,41.1962316 L180.959985,40.0648327 C180.915462,40.0003242 180.831826,39.9807385 180.773456,40.0207112 C180.714888,40.0608799 180.704209,40.1454192 180.749077,40.2101057 L181.500333,41.2986474 C180.305632,41.8538328 179.467102,42.9076721 179.360788,44.1381216 L187.495812,44.1381216 C187.388503,42.9082597 186.55095,41.8533877 185.356267,41.2986474 L185.357353,41.2986474 Z M181.712219,43.0139872 C181.463827,43.0139872 181.262366,42.8129126 181.262366,42.5648142 C181.262366,42.3169652 181.463719,42.1156412 181.712219,42.1156412 C181.960719,42.1156412 182.162071,42.316983 182.162071,42.5648142 C182.162071,42.8133043 181.960719,43.0139872 181.712219,43.0139872 L181.712219,43.0139872 Z M185.200144,43.0139872 C184.951753,43.0139872 184.750292,42.8129126 184.750292,42.5648142 C184.750292,42.3169652 184.951898,42.1156412 185.200144,42.1156412 C185.448825,42.1156412 185.649997,42.316983 185.649997,42.5648142 C185.649997,42.8133043 185.448645,43.0139872 185.200144,43.0139872 L185.200144,43.0139872 Z"/>
    <path fill="#FFF" d="M353.914202,44.6995567 C353.409111,44.6995567 353,45.1144546 353,45.6266048 L353,49.2484061 C353,49.7607343 353.409509,50.1757034 353.914202,50.1757034 C354.418894,50.1757034 354.828404,49.7608055 354.828404,49.2484061 L354.828404,45.6266048 C354.828422,45.1148285 354.419456,44.6995567 353.914202,44.6995567 L353.914202,44.6995567 Z M364.942941,44.6995567 C364.43785,44.6995567 364.028486,45.1144546 364.028486,45.6266048 L364.028486,49.2484061 C364.028486,49.7607343 364.438266,50.1757034 364.942941,50.1757034 C365.447615,50.1757034 365.857143,49.7608055 365.857143,49.2484061 L365.857143,45.6266048 C365.857143,45.1148285 365.447633,44.6995567 364.942941,44.6995567 L364.942941,44.6995567 Z M355.378597,51.345811 C355.378597,51.7389687 355.697684,52.0573265 356.091484,52.0573265 L356.90538,52.0573265 L356.90538,54.0727026 C356.90538,54.5850309 357.31489,55 357.819582,55 C358.324275,55 358.734038,54.5851021 358.734038,54.0727026 L358.734038,52.0573265 L360.156444,52.0573265 L360.156444,54.0727026 C360.156444,54.5850309 360.566224,55 361.070899,55 C361.575573,55 361.985101,54.5851021 361.985101,54.0727026 L361.985101,52.0573265 L362.798998,52.0573265 C363.192616,52.0573265 363.511884,51.7389153 363.511884,51.345811 L363.511884,44.7274932 L355.37686,44.7274932 L355.37686,51.345811 L355.378597,51.345811 Z M361.357353,41.2986474 L362.108609,40.2101057 C362.153133,40.1455973 362.142219,40.0607196 362.084229,40.0207112 C362.025661,39.9805782 361.942224,40.0009474 361.8977,40.0648327 L361.116871,41.1962316 C360.602785,40.9942132 360.031216,40.8811321 359.428843,40.8811321 C358.82647,40.8811321 358.254865,40.9939105 357.740815,41.1962316 L356.959985,40.0648327 C356.915462,40.0003242 356.831826,39.9807385 356.773456,40.0207112 C356.714888,40.0608799 356.704209,40.1454192 356.749077,40.2101057 L357.500333,41.2986474 C356.305632,41.8538328 355.467102,42.9076721 355.360788,44.1381216 L363.495812,44.1381216 C363.388503,42.9082597 362.55095,41.8533877 361.356267,41.2986474 L361.357353,41.2986474 Z M357.712219,43.0139872 C357.463827,43.0139872 357.262366,42.8129126 357.262366,42.5648142 C357.262366,42.3169652 357.463719,42.1156412 357.712219,42.1156412 C357.960719,42.1156412 358.162071,42.316983 358.162071,42.5648142 C358.162071,42.8133043 357.960719,43.0139872 357.712219,43.0139872 L357.712219,43.0139872 Z M361.200144,43.0139872 C360.951753,43.0139872 360.750292,42.8129126 360.750292,42.5648142 C360.750292,42.3169652 360.951898,42.1156412 361.200144,42.1156412 C361.448825,42.1156412 361.649997,42.316983 361.649997,42.5648142 C361.649997,42.8133043 361.448645,43.0139872 361.200144,43.0139872 L361.200144,43.0139872 Z"/>
    <path fill="#BDBDBD" d="M49.8752374,47.7586487 L49.8752374,42.1206389 L44,42.9310473 L44,47.7586487 L49.8752374,47.7586487 L49.8752374,47.7586487 Z M50.3648019,47.7586487 L58,47.7586487 L58,41 L50.3648019,42.0532217 L50.3648019,47.7586487 L50.3648019,47.7586487 Z M49.8752374,48.2413513 L44,48.2413513 L44,53.0690203 L49.8752374,53.8794457 L49.8752374,48.2413513 L49.8752374,48.2413513 Z M50.3648019,48.2413513 L50.3648019,53.9468121 L58,55 L58,48.2413513 L50.3648019,48.2413513 L50.3648019,48.2413513 Z"/>
    <path fill="#FFF" d="M225.875237,47.7586487 L225.875237,42.1206389 L220,42.9310473 L220,47.7586487 L225.875237,47.7586487 L225.875237,47.7586487 Z M226.364802,47.7586487 L234,47.7586487 L234,41 L226.364802,42.0532217 L226.364802,47.7586487 L226.364802,47.7586487 Z M225.875237,48.2413513 L220,48.2413513 L220,53.0690203 L225.875237,53.8794457 L225.875237,48.2413513 L225.875237,48.2413513 Z M226.364802,48.2413513 L226.364802,53.9468121 L234,55 L234,48.2413513 L226.364802,48.2413513 L226.364802,48.2413513 Z"/>
    <path fill="#BDBDBD" d="M144,51.0738255 C144,51.1744966 143.729754,52.1812081 143.099181,53.1879195 C142.55869,54.0939597 141.928116,55 141.027298,55 C140.126479,55 139.856233,54.3959732 138.77525,54.3959732 C137.784349,54.3959732 137.424022,55 136.523203,55 C135.622384,55 134.991811,53.9932886 134.361237,53.0872483 C133.280255,51.2751678 132.379436,47.852349 133.5505,45.5369128 C134.181074,44.4295302 135.171975,43.6241611 136.343039,43.6241611 C137.243858,43.6241611 138.054595,44.3288591 138.595086,44.3288591 C139.135578,44.3288591 140.126479,43.5234899 141.207461,43.6241611 C141.657871,43.6241611 142.919017,43.8255034 143.639672,45.1342282 C143.549591,45.1342282 142.198362,46.1409396 142.198362,48.0536913 C142.198362,50.2684564 144,51.0738255 144,51.0738255 M140.486806,42.4161074 C140.937216,41.8120805 141.297543,40.9060403 141.207461,40 C140.486806,40 139.676069,40.5033557 139.22566,41.1073826 C138.77525,41.7114094 138.414923,42.6174497 138.505005,43.5234899 C139.22566,43.5234899 140.036397,43.0201342 140.486806,42.4161074"/>
    <path fill="#FFF" d="M320,51.0738255 C320,51.1744966 319.729754,52.1812081 319.099181,53.1879195 C318.55869,54.0939597 317.928116,55 317.027298,55 C316.126479,55 315.856233,54.3959732 314.77525,54.3959732 C313.784349,54.3959732 313.424022,55 312.523203,55 C311.622384,55 310.991811,53.9932886 310.361237,53.0872483 C309.280255,51.2751678 308.379436,47.852349 309.5505,45.5369128 C310.181074,44.4295302 311.171975,43.6241611 312.343039,43.6241611 C313.243858,43.6241611 314.054595,44.3288591 314.595086,44.3288591 C315.135578,44.3288591 316.126479,43.5234899 317.207461,43.6241611 C317.657871,43.6241611 318.919017,43.8255034 319.639672,45.1342282 C319.549591,45.1342282 318.198362,46.1409396 318.198362,48.0536913 C318.198362,50.2684564 320,51.0738255 320,51.0738255 M316.486806,42.4161074 C316.937216,41.8120805 317.297543,40.9060403 317.207461,40 C316.486806,40 315.676069,40.5033557 315.22566,41.1073826 C314.77525,41.7114094 314.414923,42.6174497 314.505005,43.5234899 C315.22566,43.5234899 316.036397,43.0201342 316.486806,42.4161074"/>
    <ellipse cx="94.998" cy="47.98" stroke="#BDBDBD" opacity=".268" rx="15.998" ry="15.98"/>
    <ellipse cx="270.998" cy="47.98" stroke="#BDBDBD" opacity=".268" rx="15.998" ry="15.98"/>
    <ellipse cx="50.998" cy="47.98" stroke="#BDBDBD" opacity=".268" rx="15.998" ry="15.98"/>
    <ellipse cx="226.998" cy="47.98" stroke="#BDBDBD" opacity=".268" rx="15.998" ry="15.98"/>
    <ellipse cx="182.998" cy="47.98" stroke="#BDBDBD" opacity=".268" rx="15.998" ry="15.98"/>
    <ellipse cx="358.998" cy="47.98" stroke="#BDBDBD" opacity=".268" rx="15.998" ry="15.98"/>
    <ellipse cx="138.998" cy="47.98" stroke="#BDBDBD" opacity=".268" rx="15.998" ry="15.98"/>
    <ellipse cx="314.998" cy="47.98" stroke="#BDBDBD" opacity=".268" rx="15.998" ry="15.98"/>
    <path fill="#BDBDBD" fill-rule="nonzero" d="M60.6882361,85.0591625 C60.6791413,85.0547108 60.6711869,85.0469064 60.6620922,85.043563 C60.4961058,84.9655747 60.291469,84.9911952 60.15845,85.1293466 L57.1195475,88.2778725 C56.9535612,88.4494487 56.9615156,88.7201821 57.1365967,88.8828457 C57.3116779,89.0455092 57.5879417,89.037714 57.7539281,88.8661378 L60.481328,86.0407039 L63.2485186,88.8549901 C63.4156546,89.0254488 63.6919092,89.0299097 63.86585,88.8661286 C63.9545262,88.782571 63.9999907,88.6700402 64,88.558627 C64,88.4516746 63.9590783,88.3447131 63.8772067,88.262273 L60.8087487,85.142711 C60.8030656,85.1371418 60.7939709,85.1349159 60.7882878,85.1282291 C60.7837357,85.1237681 60.7803334,85.1193164 60.7757813,85.1137471 C60.7496374,85.0881265 60.7178011,85.0758704 60.6882454,85.0591625 L60.6882454,85.0591625 L60.6882361,85.0591625 Z"/>
  </g>
</svg>
