<svg xmlns="http://www.w3.org/2000/svg" width="121" height="24" viewBox="0 0 121 24">
  <path fill="#BDBDBD" d="M32.0623904,18.1887414 L33.9168314,18.1887413 C34.2689274,18.1887413 34.5183155,17.9393532 34.5183155,17.5872572 L34.5183155,7.42438503 L33.7361544,7.66294909 L40.33158,17.4690766 C40.6447795,17.9350565 41.0689738,18.1887413 41.5737899,18.1887413 L43.4282306,18.1887414 C43.4282306,18.1887414 43.4282308,17.9393532 43.4282308,17.5872572 L43.4282308,5.46663997 C43.4282308,5.11328201 43.4282306,4.85645476 43.4282306,4.85645476 L41.5737899,4.85645476 C41.2169031,4.85645476 40.9723057,5.11328201 40.9723057,5.46663997 L40.9723057,15.620811 L41.7543687,15.3821012 L35.1589432,5.58467475 C34.8480868,5.11457303 34.4234406,4.85645476 33.9168314,4.85645476 L32.0623904,4.85645476 L32.0623904,5.46663997 L32.0623904,17.5872572 L32.0623904,18.1887414 Z M50.3444877,18.4758772 C51.7184813,18.4758772 52.817096,18.1996541 53.6333286,17.6340756 C54.4520659,17.0667616 55.3633436,15.5557125 55.3633436,15.5557125 L52.9951668,14.9279669 C52.9951668,14.9279669 52.3990587,16.3464481 50.6416232,16.346448 C49.922007,16.3464479 49.188231,16.1435087 48.7308714,15.6910669 C48.2709628,15.2361036 47.9889576,14.5233996 47.8988163,13.5371481 L47.4731283,14.0035174 L55.5488484,14.0035175 L55.548848,12.7755549 C55.548848,11.2175946 55.0748067,9.94450038 54.124836,8.98182107 C53.1748012,8.0190767 51.9449861,7.53639023 50.4619524,7.53639023 C48.9794635,7.53639023 47.7582695,8.00988188 46.8251315,8.95575892 C45.8891615,9.90450674 45.4272634,11.2539427 45.4272634,12.9800305 C45.4272634,14.704959 45.8884632,16.0617995 46.8221455,17.0273481 C47.7538138,17.9908139 48.936856,18.4758772 50.3444877,18.4758772 Z M47.8986104,12.3641959 C47.9881198,11.4375105 48.2707341,10.7577086 48.7362701,10.3070301 C49.2003374,9.85777349 49.7704952,9.63557064 50.4706535,9.63557064 C51.1679906,9.63557064 51.7585238,9.87743145 52.2648151,10.3711908 C52.771099,10.8649429 53.0471476,11.5161667 53.0935893,12.3469564 L53.5203853,11.8956359 L47.4731283,11.8956359 L47.8986104,12.3641959 Z M59.8607384,18.1887417 C59.8607384,18.1887417 59.9781585,18.071001 60.1515266,17.8542908 L62.8516651,14.4051203 L62.1788919,14.4056463 L64.8849306,17.8512776 L65.1722975,18.1887417 L68.0027508,18.1887421 C68.0027508,18.1887421 67.4033775,17.3812774 67.3070958,17.2849957 L67.3409779,17.3231899 L63.7387269,12.7377159 L63.7389699,13.2655409 L67.286397,8.74350775 L68.0027507,7.7974229 L66.8569157,7.7974229 L65.1722975,7.7974229 L64.887319,8.14057451 L62.1785688,11.598332 L62.8519873,11.5988582 L60.1546497,8.14452582 C59.9853453,7.92226407 59.8607383,7.7974229 59.8607383,7.7974229 L57.0355706,7.7974229 C57.0355706,7.7974229 57.668673,8.63809178 57.7404509,8.70986962 L61.2815449,13.2643523 L61.2817864,12.7389041 L57.7056388,17.3243781 L57.0355706,18.1887417 L59.8607384,18.1887417 Z M71.1202865,17.2447709 C71.8804507,18.0538726 72.903377,18.4584751 74.1596141,18.4584751 C75.0402523,18.4584751 75.8067539,18.3307248 76.4581725,18.0714223 L75.5049098,16.2113893 C75.0595316,16.3647579 74.9262389,16.3505936 74.3336358,16.3505936 C73.7234739,16.3505936 73.2723228,16.1717485 72.9487771,15.8160777 C72.619845,15.4544857 72.4466085,14.8905453 72.4466085,14.1068215 L72.4466085,9.47784208 L72.0191461,9.90530441 L76.2576855,9.90530444 L75.1591442,7.79742289 L72.0191461,7.7974229 L72.4466085,8.22488524 L72.4466085,4.85645476 L69.9906834,5.60844878 L69.9906834,14.1068215 C69.9906834,15.3883198 70.3660812,16.4420116 71.1202865,17.2447709 Z M115.215313,17.1976747 C115.975477,18.0067764 116.998404,18.4113789 118.254641,18.4113789 C119.135279,18.4113789 119.901781,18.2836286 120.553199,18.0243261 L119.599936,16.1642931 C119.154558,16.3176617 119.021266,16.3034974 118.428663,16.3034974 C117.818501,16.3034974 117.367349,16.1246523 117.043804,15.7689815 C116.714872,15.4073895 116.541635,14.8434491 116.541635,14.0597253 L116.541635,9.43074588 L116.114173,9.85820821 L120.352712,9.85820824 L119.254171,7.75032669 L116.114173,7.7503267 L116.541635,8.17778904 L116.541635,4.80935856 L114.08571,5.56135258 L114.08571,14.0597253 C114.08571,15.3412236 114.461108,16.3949154 115.215313,17.1976747 Z M95.5253165,18.4978886 C97.0259985,18.4978886 98.2568006,18.0180033 99.1902415,17.059076 C100.124678,16.0991256 100.586109,14.7447559 100.586109,13.019444 C100.586109,11.2933563 100.124211,9.94392027 99.1882407,8.99517245 C98.2547848,8.04897317 97.024863,7.57580375 95.5253165,7.57580375 C94.02577,7.57580375 92.7958482,8.04897317 91.8623923,8.99517245 C90.9264223,9.94392027 90.4645242,11.2933563 90.4645242,13.019444 C90.4645242,14.7447559 90.9259548,16.0991256 91.8603915,17.059076 C92.7938324,18.0180033 94.0246345,18.4978886 95.5253165,18.4978886 Z M95.6230331,9.70383852 C96.405299,9.70383852 97.0192846,9.96819344 97.4962995,10.5045262 C97.9776955,11.0457849 98.2279004,11.8871475 98.2279004,13.0439478 C98.2279004,14.2018218 97.9771866,15.0500918 97.4937388,15.6036771 C97.0165352,16.1501123 96.4036413,16.4188614 95.6230331,16.4188614 C94.842425,16.4188614 94.2295311,16.1501123 93.7523275,15.6036771 C93.2688797,15.0500918 93.0181659,14.2018218 93.0181659,13.0439478 C93.0181659,11.8871475 93.2683708,11.0457849 93.7497668,10.5045262 C94.2267817,9.96819344 94.8407673,9.70383852 95.6230331,9.70383852 Z M102.594322,18.2281545 L102.594322,17.6266707 L102.594322,8.44702163 C102.594322,8.09366368 102.594322,8.17690467 102.594322,8.17690467 L104.870443,7.57580375 C104.870443,7.57580375 104.763907,8.06962193 104.870443,8.40649432 L104.370453,8.44702163 L104.870443,7.57580375 L104.870443,9.35004915 L104.535774,9.42154362 L104.186551,9.17503328 C104.282029,9.03977337 104.451953,8.87148304 104.709044,8.64974231 C104.962431,8.43119591 105.212525,8.25324394 105.454835,8.11938584 C106.090452,7.7561764 106.824826,7.57580375 107.650764,7.57580375 C108.959169,7.57580375 110.049768,7.9875933 110.898009,8.81013012 C111.751882,9.63812767 112.176439,10.7734974 112.176439,12.18849 L112.176439,17.6266707 C112.176439,17.9787667 112.17644,18.2281545 112.17644,18.2281545 L109.720514,18.2281545 C109.720514,18.2281545 109.720514,17.9787667 109.720514,17.6266707 L109.720514,12.18849 C109.720514,11.3514255 109.512461,10.7322189 109.107878,10.3083701 C108.70265,9.88384578 108.19711,9.67498417 107.563753,9.67498417 C107.275445,9.67498417 106.990317,9.7300519 106.705843,9.84136755 C106.410535,9.95692306 106.171107,10.0897993 105.98669,10.2378177 C105.783351,10.4010241 105.605486,10.5669433 105.448153,10.7404664 C105.285832,10.9137929 105.165962,11.0512711 105.090433,11.149842 C105.05895,11.1909301 105.03763,11.2221273 105.027531,11.2401006 C105.03913,11.2194588 105.050247,11.1891199 105.050247,11.118256 L105.050247,17.6266707 C105.050247,17.9787667 105.050247,18.2281545 105.050247,18.2281545 L104.527013,18.2281546 L102.594322,18.2281545 Z M88.4765917,18.428781 L84.0297485,18.428781 C80.3122631,18.428781 78.4535482,16.1589 78.4535482,11.6190698 C78.4535482,7.07923961 80.3122631,4.80935856 84.0297485,4.80935856 L88.4765917,4.80935856 L88.4765917,6.96779382 L84.8809624,6.96779382 C83.7045429,6.96779382 82.8340056,7.21099536 82.2693243,7.69740574 C81.3752455,8.45404411 80.7154094,9.6193827 80.7154094,11.6190698 C80.7154094,13.6187569 81.3752455,14.7570731 82.2693243,15.4596659 C82.8340056,16.0001219 83.7045429,16.2703458 84.8809624,16.2703458 L88.4765917,16.2703458 L88.4765917,18.428781 Z M23.9055209,10.1560134 C23.9983873,10.7571556 24.0467928,11.3728977 24.0467928,12.000041 C24.0467928,18.6274508 18.6637504,24 12.0233964,24 C5.38304241,24 0,18.6274508 0,12.000041 C0,5.37263118 5.38304241,0 12.0233964,0 C17.1579186,0 21.5398948,3.21265332 23.2636748,7.73339986 L22.6478806,7.73725492 L15.1607171,7.73725492 C15.1607171,7.73725492 15.0159114,7.7361066 14.9660265,7.73807514 C14.9578905,7.73840323 14.9409609,7.74028974 14.9286335,7.7423403 C14.6137919,7.79401442 14.4623294,8.12111974 14.4623294,8.44133519 L14.4623294,13.5345981 L10.0752579,7.0304679 C9.7772638,6.58065707 9.36602207,6.34287413 8.88599351,6.34287413 L7.16089858,6.34287413 L7.16089858,17.6571259 L8.88599351,17.6571259 C9.29066063,17.6571259 9.58438124,17.3639778 9.58438124,16.9601815 L9.58438124,10.4667963 L13.9721924,16.9778984 C14.2715014,17.4222137 14.6824966,17.6571259 15.1607171,17.6571259 L16.8858121,17.6571259 L16.8858121,10.1560134 L23.9055209,10.1560134 Z"/>
</svg>
