<svg xmlns="http://www.w3.org/2000/svg" width="120" height="26" viewBox="0 0 120 26">
  <path fill="#FFF" d="M35,19.7064029 L36.7665665,19.7064027 C37.1019782,19.7064027 37.3395488,19.4695588 37.3395488,19.1351732 L37.3395488,9.48349122 L36.5944511,9.71005555 L42.8773462,19.022937 C43.1757046,19.4654782 43.579798,19.7064027 44.0606929,19.7064027 L45.8272592,19.7064029 C45.8272592,19.7064029 45.8272594,19.4695588 45.8272594,19.1351732 L45.8272594,7.62422029 C45.8272594,7.28863617 45.8272592,7.04472727 45.8272592,7.04472727 L44.0606929,7.04472727 C43.7207175,7.04472727 43.4877106,7.28863617 43.4877106,7.62422029 L43.4877106,17.2676388 L44.2327149,17.040936 L37.9498197,7.73631796 C37.6536935,7.28986225 37.2491696,7.04472727 36.7665665,7.04472727 L35,7.04472727 L35,7.62422029 L35,19.1351732 L35,19.7064029 Z M52.415783,19.9790958 C53.7246686,19.9790958 54.7712244,19.7167666 55.5487791,19.1796366 C56.3287198,18.6408584 57.1968156,17.2058147 57.1968156,17.2058147 L54.9408572,16.6096446 C54.9408572,16.6096446 54.3729962,17.9567765 52.6988384,17.9567764 C52.0133219,17.9567763 51.3143166,17.7640449 50.8786294,17.3343609 C50.440514,16.9022821 50.1718719,16.2254269 50.086002,15.2887837 L49.6804856,15.7316947 L57.3735301,15.7316947 L57.3735298,14.5654984 C57.3735298,13.0859032 56.9219514,11.8768453 56.016996,10.9625886 C55.1119794,10.04827 53.9404403,9.58986258 52.5276815,9.58986258 C51.1154417,9.58986258 49.9521151,10.0395377 49.0631948,10.9378373 C48.1715765,11.8388634 47.7315659,13.120423 47.7315659,14.7596889 C47.7315659,16.3978539 48.1709114,17.6864457 49.0603503,18.6034274 C49.9478706,19.5184311 51.0748532,19.9790958 52.415783,19.9790958 Z M50.0858059,14.1748307 C50.1710738,13.2947573 50.4402961,12.6491493 50.8837723,12.2211399 C51.3258493,11.7944808 51.8689897,11.5834547 52.5359703,11.5834547 C53.2002634,11.5834547 53.7628137,11.8131499 54.2451139,12.2820733 C54.727407,12.7509898 54.9903748,13.3694572 55.0346158,14.1584583 L55.4411877,13.7298392 L49.6804856,13.7298392 L50.0858059,14.1748307 Z M61.4810972,19.7064031 C61.4810972,19.7064031 61.5929532,19.5945847 61.7581062,19.388775 L64.3302961,16.113097 L63.6894028,16.1135966 L66.2672134,19.3859134 L66.5409631,19.7064031 L69.2372928,19.7064035 C69.2372928,19.7064035 68.6663213,18.9395541 68.574602,18.8481153 L68.6068785,18.8843884 L65.1753236,14.5295627 L65.1755551,15.0308382 L68.554884,10.7362624 L69.2372927,9.83776537 L68.1457542,9.83776537 L66.5409631,9.83776537 L66.2694886,10.1636565 L63.689095,13.4474896 L64.330603,13.4479893 L61.7610812,10.1674091 C61.5997995,9.95632705 61.4810972,9.83776537 61.4810972,9.83776537 L58.7898027,9.83776537 C58.7898027,9.83776537 59.3929049,10.6361488 59.4612815,10.7043162 L62.8345775,15.0297095 L62.8348075,14.5306912 L59.428119,18.8855168 L58.7898027,19.7064031 L61.4810972,19.7064031 Z M72.2071011,18.8099138 C72.9312442,19.5783179 73.9056982,19.962569 75.1024073,19.962569 C75.9413156,19.962569 76.6714959,19.8412445 77.2920464,19.5949848 L76.3839549,17.8285111 C75.9596814,17.9741653 75.8327048,17.9607134 75.2681829,17.9607134 C74.686934,17.9607134 74.2571612,17.7908643 73.948947,17.4530836 C73.6356017,17.1096796 73.470574,16.5741053 73.470574,15.8298026 L73.470574,11.4336598 L73.0633674,11.8396209 L77.1010596,11.8396209 L76.0545738,9.83776535 L73.0633674,9.83776537 L73.470574,10.2437264 L73.4705741,7.04472727 L71.1310253,7.75889616 L71.1310253,15.8298026 C71.1310253,17.0468419 71.4886345,18.0475332 72.2071011,18.8099138 Z M114.212644,18.7651865 C114.936787,19.5335907 115.911241,19.9178417 117.10795,19.9178417 C117.946858,19.9178417 118.677038,19.7965172 119.297589,19.5502576 L118.389497,17.7837839 C117.965224,17.929438 117.838247,17.9159862 117.273725,17.9159862 C116.692477,17.9159862 116.262704,17.746137 115.954489,17.4083563 C115.641144,17.0649523 115.476117,16.529378 115.476117,15.7850754 L115.476117,11.3889326 L115.06891,11.7948936 L119.106602,11.7948937 L118.060116,9.79303808 L115.06891,9.79303809 L115.476117,10.1989992 L115.476117,7 L113.136568,7.71416888 L113.136568,15.7850754 C113.136568,17.0021146 113.494177,18.0028059 114.212644,18.7651865 Z M95.4556759,20 C96.8852466,20 98.0577261,19.5442528 98.946935,18.6335593 C99.8370926,17.7218943 100.276658,16.4356491 100.276658,14.79712 C100.276658,13.1578541 99.8366472,11.8762944 98.945029,10.9752684 C98.0558058,10.0766627 96.884165,9.62729361 95.4556759,9.62729361 C94.0271868,9.62729361 92.855546,10.0766627 91.9663228,10.9752684 C91.0747046,11.8762944 90.634694,13.1578541 90.634694,14.79712 C90.634694,16.4356491 91.0742593,17.7218943 91.9644168,18.6335593 C92.8536257,19.5442528 94.0261052,20 95.4556759,20 Z M95.5487622,11.6482887 C96.2939596,11.6482887 96.878851,11.8993466 97.333262,12.408702 C97.7918466,12.9227355 98.0301953,13.7217777 98.0301953,14.8203912 C98.0301953,15.9200244 97.7913618,16.7256266 97.3308227,17.2513667 C96.8762318,17.7703164 96.2923805,18.0255474 95.5487622,18.0255474 C94.8051438,18.0255474 94.2212925,17.7703164 93.7667016,17.2513667 C93.3061625,16.7256266 93.067329,15.9200244 93.067329,14.8203912 C93.067329,13.7217777 93.3056777,12.9227355 93.7642623,12.408702 C94.2186733,11.8993466 94.8035647,11.6482887 95.5487622,11.6482887 Z M102.18971,19.7438335 L102.18971,19.1726042 L102.18971,10.4546894 C102.18971,10.1191053 102.18971,10.1981593 102.18971,10.1981593 L104.357975,9.62729361 C104.357975,9.62729361 104.256487,10.0962728 104.357975,10.4162006 L103.881678,10.4546894 L104.357975,9.62729361 L104.357975,11.3122949 L104.039165,11.3801932 L103.70649,11.1460822 C103.797443,11.0176259 103.959315,10.8578005 104.204224,10.6472133 C104.445604,10.4396597 104.683847,10.2706587 104.914675,10.1435336 C105.520172,9.79859355 106.219748,9.62729361 107.006548,9.62729361 C108.252953,9.62729361 109.291873,10.0183702 110.099919,10.7995336 C110.91333,11.5858831 111.31777,12.664144 111.31777,14.0079627 L111.31777,19.1726042 C111.31777,19.5069899 111.31777,19.7438335 111.31777,19.7438335 L108.978221,19.7438335 C108.978221,19.7438335 108.978221,19.5069899 108.978221,19.1726042 L108.978221,14.0079627 C108.978221,13.2130024 108.780026,12.6249418 108.394615,12.2224124 C108.008589,11.8192416 107.527005,11.6208857 106.92366,11.6208857 C106.649014,11.6208857 106.377396,11.6731836 106.106403,11.7789001 C105.825088,11.8886431 105.597006,12.0148357 105.421328,12.1554089 C105.227624,12.310406 105.058187,12.4679795 104.90831,12.6327745 C104.75368,12.7973826 104.63949,12.9279457 104.567541,13.0215585 C104.537549,13.0605799 104.51724,13.0902078 104.507619,13.1072771 C104.518668,13.0876736 104.529259,13.0588608 104.529259,12.9915613 L104.529259,19.1726042 C104.529259,19.5069899 104.529259,19.7438335 104.529259,19.7438335 L104.030819,19.7438336 L102.18971,19.7438335 Z M88.7409615,19.9343685 L84.5048361,19.9343685 C80.9635072,19.9343685 79.1928694,17.778662 79.1928694,13.4671843 C79.1928694,9.15570653 80.9635072,7 84.5048361,7 L88.7409615,7 L88.7409615,9.04986644 L85.3157144,9.04986644 C84.1950408,9.04986644 83.3657547,9.280835 82.8278313,9.74277904 C81.9761193,10.4613587 81.3475501,11.568081 81.3475501,13.4671843 C81.3475501,15.3662876 81.9761193,16.4473467 82.8278313,17.1145992 C83.3657547,17.6278704 84.1950408,17.8845021 85.3157144,17.8845021 L88.7409615,17.8845021 L88.7409615,19.9343685 Z M25.9771061,11.0023479 C26.0780199,11.6535852 26.1306202,12.3206392 26.1306202,13.0000444 C26.1306202,20.1797384 20.2810985,26 13.0653101,26 C5.84952171,26 2.84217094e-14,20.1797384 2.84217094e-14,13.0000444 C2.84217094e-14,5.82035044 5.84952171,0 13.0653101,0 C18.6447756,0 23.4064815,3.48037443 25.2796394,8.37784985 L24.6104822,8.38202616 L16.4745022,8.38202616 C16.4745022,8.38202616 16.317148,8.38078215 16.2629403,8.38291473 C16.2540991,8.38327016 16.2357025,8.38531389 16.2223068,8.38753533 C15.880182,8.44351562 15.7155941,8.79787972 15.7155941,9.14477979 L15.7155941,14.6624812 L10.9483514,7.61634023 C10.624534,7.12904516 10.1776552,6.87144698 9.65602869,6.87144698 L7.78144189,6.87144698 L7.78144189,19.128553 L9.65602869,19.128553 C10.0957631,19.128553 10.4149367,18.810976 10.4149367,18.37353 L10.4149367,11.3390293 L15.1829832,18.3927232 C15.5082295,18.8740649 15.9548404,19.128553 16.4745022,19.128553 L18.349089,19.128553 L18.349089,11.0023479 L25.9771061,11.0023479 Z"/>
</svg>
