<?xml version="1.0" encoding="UTF-8"?><!DOCTYPE svg PUBLIC "-//W3C//DTD SVG 1.1//EN" "http://www.w3.org/Graphics/SVG/1.1/DTD/svg11.dtd"><svg xmlns="http://www.w3.org/2000/svg"><symbol id="large-corp" viewBox="0 0 14 13"><g fill="none" fill-rule="evenodd"><path fill="#7EFFB7" d="M9.109 4.645h3.36v5.848h-3.36V4.645zM2.069 2.19h4.587v8.916H2.07V2.191z"/><path fill="#12CE66" fill-rule="nonzero" d="M13.533 11.2h-.466V4.667c0-1.027-.84-1.867-1.867-1.867H8.4v7.933a.462.462 0 0 1-.467.467.462.462 0 0 1-.466-.467V1.867C7.467.84 6.627 0 5.6 0H2.8C1.773 0 .933.84.933 1.867V11.2H.467a.462.462 0 0 0-.467.467c0 .261.205.466.467.466h13.066a.462.462 0 0 0 .467-.466.462.462 0 0 0-.467-.467zm-8.4-1.867H3.267a.462.462 0 0 1-.467-.466c0-.262.205-.467.467-.467h1.866c.262 0 .467.205.467.467a.462.462 0 0 1-.467.466zm0-2.8H3.267a.462.462 0 0 1-.467-.466c0-.262.205-.467.467-.467h1.866c.262 0 .467.205.467.467a.462.462 0 0 1-.467.466zm0-2.8H3.267a.462.462 0 0 1-.467-.466c0-.262.205-.467.467-.467h1.866c.262 0 .467.205.467.467a.462.462 0 0 1-.467.466zm6.534 5.6H9.8a.462.462 0 0 1-.467-.466c0-.262.206-.467.467-.467h1.867c.261 0 .466.205.466.467a.462.462 0 0 1-.466.466zm0-2.8H9.8a.462.462 0 0 1-.467-.466c0-.262.206-.467.467-.467h1.867c.261 0 .466.205.466.467a.462.462 0 0 1-.466.466z"/></g></symbol><symbol id="small-corp" viewBox="0 0 14 16"><g fill="none" fill-rule="evenodd"><path fill="#FFE9AA" d="M1.871 3.27l4.38-1.01v12.27H1.87V3.27zm6.826 2.16l3.585.262v7.624H8.697V5.43z"/><path fill="#FFC729" fill-rule="nonzero" d="M13.414 14.352h-.583V5.735c0-.431-.302-.888-.68-1.02l-3.1-1.078c-.48-.169-.885.104-.885.61v10.105H7V.88C7 .207 6.493-.158 5.892.067L2.018 1.503c-.472.176-.849.785-.849 1.36v11.49H.586a.592.592 0 0 0-.583.598c0 .329.263.598.583.598h12.828c.32 0 .583-.269.583-.598a.592.592 0 0 0-.583-.599zM5.25 11.961H2.918a.592.592 0 0 1-.583-.599c0-.329.263-.598.583-.598h2.333c.32 0 .583.269.583.598 0 .33-.263.599-.583.599zm0-2.393H2.918a.592.592 0 0 1-.583-.599c0-.33.263-.598.583-.598h2.333c.32 0 .583.269.583.598 0 .33-.263.599-.583.599zm0-2.392H2.918a.592.592 0 0 1-.583-.598c0-.33.263-.598.583-.598h2.333c.32 0 .583.268.583.598 0 .33-.263.598-.583.598zm0-2.393H2.918a.592.592 0 0 1-.583-.598c0-.33.263-.598.583-.598h2.333c.32 0 .583.268.583.598 0 .33-.263.598-.583.598zm5.83 7.178H9.916a.592.592 0 0 1-.583-.599c0-.329.263-.598.583-.598h1.167c.32 0 .583.269.583.598 0 .33-.263.599-.583.599zm0-2.393H9.916a.592.592 0 0 1-.583-.599c0-.33.263-.598.583-.598h1.167c.32 0 .583.269.583.598 0 .33-.263.599-.583.599zm0-2.392H9.916a.592.592 0 0 1-.583-.598c0-.33.263-.598.583-.598h1.167c.32 0 .583.268.583.598 0 .33-.263.598-.583.598z"/></g></symbol></svg>