<svg xmlns="http://www.w3.org/2000/svg" width="14" height="16" viewBox="0 0 14 16">
  <g fill="none" fill-rule="evenodd">
    <path fill="#FFE9AA" d="M1.87109375,3.26953125 L6.25073242,2.26074219 L6.25073242,14.5307617 L1.87109375,14.5307617 L1.87109375,3.26953125 Z M8.69677734,5.42919922 L12.2817383,5.69213867 L12.2817383,13.3164062 L8.69677734,13.3164062 L8.69677734,5.42919922 Z"/>
    <path fill="#FFC729" fill-rule="nonzero" d="M13.4138829,14.3522777 L12.8308026,14.3522777 L12.8308026,5.735141 C12.8308026,5.30390456 12.5286334,4.84685466 12.1505423,4.71475054 L9.05140998,3.63665944 C8.57006508,3.4681128 8.16616052,3.74143167 8.16616052,4.24707158 L8.16616052,14.3522777 L7,14.3522777 L7,0.879175705 C7,0.206507592 6.49284165,-0.15791757 5.89154013,0.0668112798 L2.01800434,1.5032538 C1.54577007,1.67939262 1.1691974,2.28828633 1.1691974,2.8637744 L1.1691974,14.3522777 L0.586117137,14.3522777 C0.265726681,14.3522777 0.00303687636,14.6210412 0.00303687636,14.9505423 C0.00303687636,15.2800434 0.265726681,15.5488069 0.586117137,15.5488069 L13.4138829,15.5488069 C13.7342733,15.5488069 13.9969631,15.2800434 13.9969631,14.9505423 C13.9969631,14.6210412 13.7342733,14.3522777 13.4138829,14.3522777 Z M5.25075922,11.9607375 L2.91843818,11.9607375 C2.59804772,11.9607375 2.33535792,11.691974 2.33535792,11.3624729 C2.33535792,11.0329718 2.59804772,10.7642082 2.91843818,10.7642082 L5.25075922,10.7642082 C5.57114967,10.7642082 5.83383948,11.0329718 5.83383948,11.3624729 C5.83383948,11.691974 5.57114967,11.9607375 5.25075922,11.9607375 L5.25075922,11.9607375 Z M5.25075922,9.56767896 L2.91843818,9.56767896 C2.59804772,9.56767896 2.33535792,9.2989154 2.33535792,8.96941432 C2.33535792,8.63991323 2.59804772,8.37114967 2.91843818,8.37114967 L5.25075922,8.37114967 C5.57114967,8.37114967 5.83383948,8.63991323 5.83383948,8.96941432 C5.83383948,9.2989154 5.57114967,9.56767896 5.25075922,9.56767896 L5.25075922,9.56767896 Z M5.25075922,7.17613883 L2.91843818,7.17613883 C2.59804772,7.17613883 2.33535792,6.90737527 2.33535792,6.57787419 C2.33535792,6.2483731 2.59804772,5.97960954 2.91843818,5.97960954 L5.25075922,5.97960954 C5.57114967,5.97960954 5.83383948,6.2483731 5.83383948,6.57787419 C5.83383948,6.90737527 5.57114967,7.17613883 5.25075922,7.17613883 L5.25075922,7.17613883 Z M5.25075922,4.78308026 L2.91843818,4.78308026 C2.59804772,4.78308026 2.33535792,4.5143167 2.33535792,4.18481562 C2.33535792,3.85531453 2.59804772,3.58655098 2.91843818,3.58655098 L5.25075922,3.58655098 C5.57114967,3.58655098 5.83383948,3.85531453 5.83383948,4.18481562 C5.83383948,4.5143167 5.57114967,4.78308026 5.25075922,4.78308026 Z M11.0815618,11.9607375 L9.9154013,11.9607375 C9.59501085,11.9607375 9.33232104,11.691974 9.33232104,11.3624729 C9.33232104,11.0329718 9.59501085,10.7642082 9.9154013,10.7642082 L11.0815618,10.7642082 C11.4019523,10.7642082 11.6646421,11.0329718 11.6646421,11.3624729 C11.6646421,11.691974 11.4019523,11.9607375 11.0815618,11.9607375 Z M11.0815618,9.56767896 L9.9154013,9.56767896 C9.59501085,9.56767896 9.33232104,9.2989154 9.33232104,8.96941432 C9.33232104,8.63991323 9.59501085,8.37114967 9.9154013,8.37114967 L11.0815618,8.37114967 C11.4019523,8.37114967 11.6646421,8.63991323 11.6646421,8.96941432 C11.6646421,9.2989154 11.4019523,9.56767896 11.0815618,9.56767896 Z M11.0815618,7.17613883 L9.9154013,7.17613883 C9.59501085,7.17613883 9.33232104,6.90737527 9.33232104,6.57787419 C9.33232104,6.2483731 9.59501085,5.97960954 9.9154013,5.97960954 L11.0815618,5.97960954 C11.4019523,5.97960954 11.6646421,6.2483731 11.6646421,6.57787419 C11.6646421,6.90737527 11.4019523,7.17613883 11.0815618,7.17613883 Z"/>
  </g>
</svg>
