<svg xmlns="http://www.w3.org/2000/svg" width="14" height="13" viewBox="0 0 14 13">
  <g fill="none" fill-rule="evenodd">
    <path fill="#7EFFB7" d="M9.10888672,4.64477539 L12.46875,4.64477539 L12.46875,10.4929199 L9.10888672,10.4929199 L9.10888672,4.64477539 Z M2.06958008,2.19116211 L6.65649414,2.19116211 L6.65649414,11.1071777 L2.06958008,11.1071777 L2.06958008,2.19116211 Z"/>
    <path fill="#12CE66" fill-rule="nonzero" d="M13.5333333,11.2 L13.0666667,11.2 L13.0666667,4.66666667 C13.0666667,3.64 12.2266667,2.8 11.2,2.8 L8.4,2.8 L8.4,10.7333333 C8.4,10.9946667 8.19466667,11.2 7.93333333,11.2 C7.672,11.2 7.46666667,10.9946667 7.46666667,10.7333333 L7.46666667,1.86666667 C7.46666667,0.84 6.62666667,0 5.6,0 L2.8,0 C1.77333333,0 0.933333333,0.84 0.933333333,1.86666667 L0.933333333,11.2 L0.466666667,11.2 C0.205333333,11.2 0,11.4053333 0,11.6666667 C0,11.928 0.205333333,12.1333333 0.466666667,12.1333333 L13.5333333,12.1333333 C13.7946667,12.1333333 14,11.928 14,11.6666667 C14,11.4053333 13.7946667,11.2 13.5333333,11.2 Z M5.13333333,9.33333333 L3.26666667,9.33333333 C3.00533333,9.33333333 2.8,9.128 2.8,8.86666667 C2.8,8.60533333 3.00533333,8.4 3.26666667,8.4 L5.13333333,8.4 C5.39466667,8.4 5.6,8.60533333 5.6,8.86666667 C5.6,9.128 5.39466667,9.33333333 5.13333333,9.33333333 Z M5.13333333,6.53333333 L3.26666667,6.53333333 C3.00533333,6.53333333 2.8,6.328 2.8,6.06666667 C2.8,5.80533333 3.00533333,5.6 3.26666667,5.6 L5.13333333,5.6 C5.39466667,5.6 5.6,5.80533333 5.6,6.06666667 C5.6,6.328 5.39466667,6.53333333 5.13333333,6.53333333 Z M5.13333333,3.73333333 L3.26666667,3.73333333 C3.00533333,3.73333333 2.8,3.528 2.8,3.26666667 C2.8,3.00533333 3.00533333,2.8 3.26666667,2.8 L5.13333333,2.8 C5.39466667,2.8 5.6,3.00533333 5.6,3.26666667 C5.6,3.528 5.39466667,3.73333333 5.13333333,3.73333333 Z M11.6666667,9.33333333 L9.8,9.33333333 C9.53866667,9.33333333 9.33333333,9.128 9.33333333,8.86666667 C9.33333333,8.60533333 9.53866667,8.4 9.8,8.4 L11.6666667,8.4 C11.928,8.4 12.1333333,8.60533333 12.1333333,8.86666667 C12.1333333,9.128 11.928,9.33333333 11.6666667,9.33333333 Z M11.6666667,6.53333333 L9.8,6.53333333 C9.53866667,6.53333333 9.33333333,6.328 9.33333333,6.06666667 C9.33333333,5.80533333 9.53866667,5.6 9.8,5.6 L11.6666667,5.6 C11.928,5.6 12.1333333,5.80533333 12.1333333,6.06666667 C12.1333333,6.328 11.928,6.53333333 11.6666667,6.53333333 Z"/>
  </g>
</svg>
